<svg xmlns="http://www.w3.org/2000/svg" id="el_FSz3MZyqh" viewBox="0 0 580 400"><style>@-webkit-keyframes el_ELnz97UYcI_hqmWK97NpN_Animation{0%{-webkit-transform: translate(11.857077598571777px, 31.688812255859375px) rotate(0deg) translate(-11.857077598571777px, -31.688812255859375px);transform: translate(11.857077598571777px, 31.688812255859375px) rotate(0deg) translate(-11.857077598571777px, -31.688812255859375px);}29.52%{-webkit-transform: translate(11.857077598571777px, 31.688812255859375px) rotate(-10deg) translate(-11.857077598571777px, -31.688812255859375px);transform: translate(11.857077598571777px, 31.688812255859375px) rotate(-10deg) translate(-11.857077598571777px, -31.688812255859375px);}56.67%{-webkit-transform: translate(11.857077598571777px, 31.688812255859375px) rotate(10deg) translate(-11.857077598571777px, -31.688812255859375px);transform: translate(11.857077598571777px, 31.688812255859375px) rotate(10deg) translate(-11.857077598571777px, -31.688812255859375px);}100%{-webkit-transform: translate(11.857077598571777px, 31.688812255859375px) rotate(10deg) translate(-11.857077598571777px, -31.688812255859375px);transform: translate(11.857077598571777px, 31.688812255859375px) rotate(10deg) translate(-11.857077598571777px, -31.688812255859375px);}}@keyframes el_ELnz97UYcI_hqmWK97NpN_Animation{0%{-webkit-transform: translate(11.857077598571777px, 31.688812255859375px) rotate(0deg) translate(-11.857077598571777px, -31.688812255859375px);transform: translate(11.857077598571777px, 31.688812255859375px) rotate(0deg) translate(-11.857077598571777px, -31.688812255859375px);}29.52%{-webkit-transform: translate(11.857077598571777px, 31.688812255859375px) rotate(-10deg) translate(-11.857077598571777px, -31.688812255859375px);transform: translate(11.857077598571777px, 31.688812255859375px) rotate(-10deg) translate(-11.857077598571777px, -31.688812255859375px);}56.67%{-webkit-transform: translate(11.857077598571777px, 31.688812255859375px) rotate(10deg) translate(-11.857077598571777px, -31.688812255859375px);transform: translate(11.857077598571777px, 31.688812255859375px) rotate(10deg) translate(-11.857077598571777px, -31.688812255859375px);}100%{-webkit-transform: translate(11.857077598571777px, 31.688812255859375px) rotate(10deg) translate(-11.857077598571777px, -31.688812255859375px);transform: translate(11.857077598571777px, 31.688812255859375px) rotate(10deg) translate(-11.857077598571777px, -31.688812255859375px);}}@-webkit-keyframes el_ELnz97UYcI_b5S-5pjd4_Animation{0%{-webkit-transform: translate(11.857077598571777px, 31.688812255859375px) translate(-11.857077598571777px, -31.688812255859375px) translate(150px, 400px);transform: translate(11.857077598571777px, 31.688812255859375px) translate(-11.857077598571777px, -31.688812255859375px) translate(150px, 400px);}34.76%{-webkit-transform: translate(11.857077598571777px, 31.688812255859375px) translate(-11.857077598571777px, -31.688812255859375px) translate(190px, 200px);transform: translate(11.857077598571777px, 31.688812255859375px) translate(-11.857077598571777px, -31.688812255859375px) translate(190px, 200px);}70%{-webkit-transform: translate(11.857077598571777px, 31.688812255859375px) translate(-11.857077598571777px, -31.688812255859375px) translate(170px, 61px);transform: translate(11.857077598571777px, 31.688812255859375px) translate(-11.857077598571777px, -31.688812255859375px) translate(170px, 61px);}100%{-webkit-transform: translate(11.857077598571777px, 31.688812255859375px) translate(-11.857077598571777px, -31.688812255859375px) translate(200px, -100px);transform: translate(11.857077598571777px, 31.688812255859375px) translate(-11.857077598571777px, -31.688812255859375px) translate(200px, -100px);}}@keyframes el_ELnz97UYcI_b5S-5pjd4_Animation{0%{-webkit-transform: translate(11.857077598571777px, 31.688812255859375px) translate(-11.857077598571777px, -31.688812255859375px) translate(150px, 400px);transform: translate(11.857077598571777px, 31.688812255859375px) translate(-11.857077598571777px, -31.688812255859375px) translate(150px, 400px);}34.76%{-webkit-transform: translate(11.857077598571777px, 31.688812255859375px) translate(-11.857077598571777px, -31.688812255859375px) translate(190px, 200px);transform: translate(11.857077598571777px, 31.688812255859375px) translate(-11.857077598571777px, -31.688812255859375px) translate(190px, 200px);}70%{-webkit-transform: translate(11.857077598571777px, 31.688812255859375px) translate(-11.857077598571777px, -31.688812255859375px) translate(170px, 61px);transform: translate(11.857077598571777px, 31.688812255859375px) translate(-11.857077598571777px, -31.688812255859375px) translate(170px, 61px);}100%{-webkit-transform: translate(11.857077598571777px, 31.688812255859375px) translate(-11.857077598571777px, -31.688812255859375px) translate(200px, -100px);transform: translate(11.857077598571777px, 31.688812255859375px) translate(-11.857077598571777px, -31.688812255859375px) translate(200px, -100px);}}#el_FSz3MZyqh *{-webkit-animation-duration: 7s;animation-duration: 7s;-webkit-animation-iteration-count: infinite;animation-iteration-count: infinite;-webkit-animation-timing-function: cubic-bezier(0, 0, 1, 1);animation-timing-function: cubic-bezier(0, 0, 1, 1);}#el_iWhw-HViNA{fill: none;}#el_fR2r3WQsFQ{fill: url(#gridpattern);stroke-width: 0;}#el_KZcrVIP70B{stroke: #000000;stroke-opacity: null;stroke-width: NaN;fill: rgb(247, 255, 69);}#el_4C6NwaJWbb{stroke: #000000;stroke-opacity: null;stroke-width: NaN;fill: none;}#el_ELnz97UYcI_b5S-5pjd4{-webkit-animation-name: el_ELnz97UYcI_b5S-5pjd4_Animation;animation-name: el_ELnz97UYcI_b5S-5pjd4_Animation;-webkit-transform: translate(11.857077598571777px, 31.688812255859375px) translate(-11.857077598571777px, -31.688812255859375px) translate(0px, 400px);transform: translate(11.857077598571777px, 31.688812255859375px) translate(-11.857077598571777px, -31.688812255859375px) translate(0px, 400px);}#el_ELnz97UYcI_hqmWK97NpN{-webkit-animation-name: el_ELnz97UYcI_hqmWK97NpN_Animation;animation-name: el_ELnz97UYcI_hqmWK97NpN_Animation;}</style>
 <!-- Created with Method Draw - http://github.com/duopixel/Method-Draw/ -->
 <g id="el_6TIpuDx9Lm">
  <title>background</title>
  <rect id="el_iWhw-HViNA" height="402" width="582" y="-1" x="-1"/>
  <g display="none" overflow="visible" y="0" x="0" height="100%" width="100%" id="el_mNfGh7rERf">
   <rect y="0" x="0" height="100%" width="100%" id="el_fR2r3WQsFQ"/>
  </g>
 </g>
 <g id="el_ELnz97UYcI_b5S-5pjd4" data-animator-group="true" data-animator-type="0"><g id="el_ELnz97UYcI_hqmWK97NpN" data-animator-group="true" data-animator-type="1"><g id="el_ELnz97UYcI">
  <title>Layer 1</title>
  <ellipse ry="13.41766" rx="8.523479" id="el_KZcrVIP70B" cy="16.469784" cx="11.857078"/>
  <path d="m14.560361,60.325501c-0.096686,-0.22999 -0.125009,-0.263659 -0.193368,-0.344963c-0.068367,-0.081305 -0.125,-0.03369 -0.193372,-0.114995c-0.136735,-0.162609 -0.193372,-0.114995 -0.290054,-0.114995c-0.096686,0 -0.193372,-0.114973 -0.290058,-0.114973c-0.096686,0 -0.153323,0.047614 -0.290054,-0.114995c-0.068372,-0.081305 -0.067052,-0.282731 -0.193372,-0.344963c-0.089326,-0.044008 -0.156369,-0.008754 -0.193368,-0.114995c-0.052327,-0.150249 -0.156378,-0.123749 -0.193372,-0.229968c-0.052327,-0.150249 -0.142534,-0.132177 -0.193368,-0.22999c-0.113663,-0.218716 -0.290058,-0.229968 -0.386744,-0.344963c-0.096682,-0.114995 -0.142534,-0.24715 -0.193368,-0.344963c-0.113663,-0.218716 -0.290058,-0.229968 -0.38674,-0.344963c-0.096686,-0.114995 -0.156378,-0.123749 -0.193372,-0.229968c-0.052327,-0.150249 -0.156364,-0.123749 -0.193368,-0.22999c-0.052327,-0.150228 -0.111128,-0.169517 -0.193372,-0.229968c-0.183916,-0.135196 -0.197527,-0.608275 -0.290054,-0.574953c-0.333646,0.120143 -0.361937,0.411801 0.096682,0.22999c0.091727,-0.036362 -0.059687,-0.238744 -0.096682,-0.344963c-0.052327,-0.150249 -0.156378,-0.238744 -0.193372,-0.344963c-0.052327,-0.150249 -0.193372,-0.22999 -0.193372,-0.344985c0,-0.114973 -0.096682,-0.229968 -0.096682,-0.344963c0,-0.114973 -0.059683,-0.238722 -0.096686,-0.344963c-0.052327,-0.150228 -0.028314,-0.263659 -0.096686,-0.344963c-0.068367,-0.081305 -0.059692,-0.123749 -0.096686,-0.229968c-0.052322,-0.150249 -0.096682,-0.22999 -0.096682,-0.344963c0,-0.114995 0,-0.22999 0,-0.344963c0,-0.114995 -0.096686,-0.22999 -0.096686,-0.344963c0,-0.114995 0,-0.22999 0,-0.344985c0,-0.114973 0,-0.229968 0,-0.344963c0,-0.114973 0,-0.229968 0,-0.344963c0,-0.114973 0.096686,-0.229968 0.096686,-0.344963c0,-0.229968 0.096682,-0.344963 0.096682,-0.459958c0,-0.114973 0.096686,-0.229968 0.096686,-0.344963c0,-0.114973 0.141045,-0.194714 0.193372,-0.344963c0.036999,-0.106241 0.059683,-0.238722 0.096682,-0.344963c0.052327,-0.150249 0.125014,-0.148664 0.193372,-0.229968c0.068367,-0.081305 0.221691,-0.03369 0.290054,-0.114995c0.068372,-0.081305 0.096691,-0.114995 0.193372,-0.229968c0.096691,-0.114995 0.163729,-0.167757 0.290054,-0.22999c0.178651,-0.088017 0.200733,-0.070965 0.290058,-0.114973c0.126324,-0.062233 0.163725,-0.167757 0.290054,-0.22999c0.089326,-0.044008 0.125,-0.03369 0.193372,-0.114995c0.13673,-0.162609 0.2913,-0.096553 0.38674,-0.114973c0.301798,-0.058258 0.48601,-0.203576 0.580107,-0.22999c0.210408,-0.059061 0.290058,-0.114973 0.483426,-0.229968c0.193372,-0.114995 0.297419,-0.070987 0.386744,-0.114995c0.126315,-0.062233 0.290054,-0.114973 0.38674,-0.229968c0.096686,-0.114995 0.318372,-0.03369 0.38674,-0.114995c0.068372,-0.081305 0.200728,-0.070987 0.290054,-0.114995c0.12632,-0.062233 0.292643,-0.203555 0.38674,-0.229968c0.210413,-0.059083 0.260425,-0.167735 0.386744,-0.229968c0.178651,-0.087995 0.357097,-0.167757 0.483421,-0.22999c0.089326,-0.044008 0.297419,-0.070965 0.386744,-0.114973c0.126324,-0.062233 0.124996,-0.148685 0.193368,-0.22999c0.068367,-0.081305 0.237731,0.035254 0.290058,-0.114995c0.036994,-0.106219 0.141041,-0.079719 0.193368,-0.229968c0.036999,-0.106241 0.141045,-0.079741 0.193372,-0.229968c0.037003,-0.106241 -0.040044,-0.297349 0.096686,-0.459958c0.068363,-0.081305 0.1854,-0.044486 0.290054,-0.344963c0.037003,-0.106241 0.022693,-0.247498 0.096686,-0.459958c0.052322,-0.150249 0.096677,-0.229968 0.193368,-0.459958c0.096682,-0.229968 0.074477,-0.463043 0.096686,-0.574932c0.099344,-0.500491 0.193372,-0.804922 0.193372,-1.034912c0,-0.114973 0.096682,-0.344963 0.096682,-0.459937c0,-0.22999 0,-0.344963 0,-0.459958c0,-0.114995 0,-0.229968 0,-0.344963c0,-0.114995 0,-0.22999 0,-0.344963c0,-0.114995 0,-0.22999 0,-0.344963c0,-0.114995 -0.143698,-0.324697 -0.193368,-0.574953c-0.022214,-0.111911 -0.028319,-0.148664 -0.096686,-0.229968c-0.068372,-0.081305 -0.016735,-0.32802 -0.096686,-0.459958c-0.126406,-0.208572 -0.141045,-0.309709 -0.193368,-0.459958c-0.036994,-0.106219 -0.141045,-0.194714 -0.193372,-0.344963c-0.036999,-0.106241 -0.096686,-0.229968 -0.193368,-0.344963c-0.096686,-0.114995 -0.104047,-0.18596 -0.193372,-0.229968c-0.126329,-0.062233 -0.067052,-0.282731 -0.193372,-0.344963c-0.089326,-0.044008 -0.059683,-0.123749 -0.096682,-0.22999c-0.052327,-0.150249 -0.156378,-0.123749 -0.193372,-0.229968c-0.104654,-0.300499 -0.290054,-0.344963 -0.38674,-0.459958c-0.096686,-0.114995 -0.142538,-0.24715 -0.193372,-0.344963c-0.113658,-0.218716 -0.222248,-0.109087 -0.38674,-0.22999c-0.183902,-0.135175 -0.290054,-0.459937 -0.38674,-0.574932c-0.096686,-0.114995 -0.250009,-0.067359 -0.38674,-0.229968c-0.068372,-0.081305 -0.156378,-0.238744 -0.193372,-0.344963c-0.052327,-0.150249 -0.200728,-0.070987 -0.290054,-0.114995c-0.126329,-0.062233 -0.163738,-0.282731 -0.290054,-0.344963c-0.089326,-0.044008 -0.163729,-0.167757 -0.290058,-0.22999c-0.178647,-0.088017 -0.193368,-0.114973 -0.290054,-0.229968c-0.096686,-0.114995 -0.221691,-0.148664 -0.290058,-0.229968c-0.068372,-0.081305 -0.193363,-0.22999 -0.290054,-0.344985c-0.193368,-0.229968 -0.290058,-0.344963 -0.38674,-0.459937c-0.096691,-0.114995 -0.153323,-0.182354 -0.290054,-0.344963c-0.136735,-0.162609 -0.432592,-0.247172 -0.483426,-0.344985c-0.113663,-0.218716 -0.290058,-0.114973 -0.290058,-0.229968c0,-0.114995 -0.096686,-0.114995 -0.096686,-0.229968c0,-0.22999 -0.125,-0.148685 -0.193368,-0.22999c-0.068358,-0.081305 -0.028319,-0.148664 -0.096686,-0.229968c-0.068372,-0.081305 0.096686,-0.229968 0.096686,-0.344963c0,-0.114995 0.028328,-0.263659 0.096686,-0.344963c0.068363,-0.081305 0.096677,-0.114995 0.193368,-0.22999c0.096682,-0.114973 0.125,-0.263659 0.193372,-0.344963c0.068367,-0.081305 0.096686,-0.114973 0.193368,-0.114973l0,-0.114995l0,0.114995" id="el_4C6NwaJWbb"/>
 </g></g></g>
</svg>